<svg version="1.2" baseProfile="tiny-ps" xmlns="http://www.w3.org/2000/svg" viewBox="0 0 1788 1353" width="1788" height="1353">
	<title>Vale_logo-svg</title>
	<style>
		tspan { white-space:pre }
		.shp0 { fill: #ecb833 } 
		.shp1 { fill: #00939a } 
	</style>
	<g id="layer1">
		<g id="g2406">
			<path id="path2384" fill-rule="evenodd" class="shp0" d="M1611.29 405.91C1373.94 584.23 1154.26 565.03 952.14 348.32C1361.84 191.18 1577.69 -51.63 1787.98 156.55L1632.01 379.88L1631.75 379.88L1631.72 380.2L1631.46 380.2L1631.46 380.23L1631.43 380.23L1631.43 380.58L1631.14 380.58L1631.14 380.64L1630.95 380.64L1630.95 380.68L1630.86 380.68L1630.86 380.71C1630.7 380.71 1630.76 380.87 1630.63 380.87L1630.63 380.96L1630.6 380.96L1630.6 381.06L1630.54 381.06L1630.51 381.25L1630.44 381.25L1630.38 381.38L1630.35 381.38C1630.35 381.47 1630.25 381.47 1630.25 381.57L1630.19 381.57L1630.19 381.67L1630.15 381.67L1630.15 381.73C1629.9 381.73 1629.68 382.15 1629.55 382.15L1629.55 382.18L1629.48 382.18L1629.45 382.31L1629.52 382.31L1629.52 382.37L1629.45 382.37L1629.32 382.59L1629.04 382.78L1629.04 382.88L1628.97 382.88C1628.97 383.07 1628.56 383.58 1628.4 383.68L1628.4 383.74L1628.33 383.77L1628.33 384.25L1628.24 384.25L1628.24 384.38L1628.18 384.38L1628.18 384.45L1628.14 384.48L1628.14 384.61L1627.98 384.67L1627.98 384.7L1627.92 384.7L1627.76 384.8L1627.76 384.86C1627.66 384.92 1627.6 384.99 1627.6 385.15L1627.57 385.15L1627.51 385.28L1627.09 385.44L1627.09 385.5L1626.99 385.56L1626.99 385.6C1626.71 385.75 1625.21 387.83 1624.92 388.25L1624.92 388.25L1624.86 388.37L1624.79 388.37C1624.79 388.57 1624.57 388.79 1624.57 389.08L1624.54 389.08L1624.54 389.2C1624.25 389.33 1623.68 389.97 1623.36 389.97L1623.36 390.1C1622.75 390.39 1622.27 390.93 1621.6 391.18L1621.6 391.28L1621.38 391.28L1621.38 391.38L1621.28 391.38L1621.19 391.57C1621.06 391.57 1621.03 391.66 1620.9 391.66L1620.9 391.76L1620.39 392.05L1620.39 392.24L1620.29 392.24L1620.29 392.3C1620.13 392.43 1619.43 392.97 1619.3 392.97L1618.92 393.48L1618.82 393.48L1618.82 393.58L1618.66 393.84L1618.66 393.93L1618.47 393.93C1618.47 397.99 1612.76 399.49 1612.76 402.11L1612.66 402.11C1612.66 402.4 1611.99 403 1611.99 403.39L1611.9 403.39C1611.8 403.51 1611.48 403.86 1611.48 403.99L1611.39 403.99C1611.1 404.28 1611.29 405.56 1611.29 405.91Z" />
			<path id="path2386" fill-rule="evenodd" class="shp1" d="M1632.32 379.43C1013.39 940.08 770.67 -386.05 0.24 115.83L868.4 1352.55" />
		</g>
	</g>
</svg>